<svg viewBox="0 0 760 220" width="760" height="220" xmlns="http://www.w3.org/2000/svg">
  <defs>
    <linearGradient id="bad" x1="0%" y1="0%" x2="100%" y2="0%">
      <stop offset="0%" stop-color="#7f1d1d"/>
      <stop offset="100%" stop-color="#ef4444"/>
    </linearGradient>
    <linearGradient id="good" x1="0%" y1="0%" x2="100%" y2="0%">
      <stop offset="0%" stop-color="#14532d"/>
      <stop offset="100%" stop-color="#3fb950"/>
    </linearGradient>
  </defs>
  <style>
    text { font-family: ui-monospace,'SF Mono',Menlo,monospace; }
    .sans { font-family: -apple-system,BlinkMacSystemFont,'Segoe UI',sans-serif; }
    .label { font-size:11px; fill:#8b949e; }
  </style>

  <rect width="760" height="220" fill="#0d1117"/>

  <!-- Row 1: Email triage 14,000 → 50 -->
  <text x="20" y="34" class="sans label">Email triage (Gmail + Slack)</text>
  <text x="560" y="34" class="sans" font-size="11" fill="#ef4444">14,000</text>
  <text x="608" y="34" class="sans" font-size="11" fill="#3a4455">→</text>
  <text x="622" y="34" class="sans" font-size="11" fill="#3fb950">50</text>
  <rect x="680" y="22" width="68" height="16" rx="8" fill="rgba(63,185,80,0.12)" stroke="rgba(63,185,80,0.35)" stroke-width="1"/>
  <text x="714" y="34" text-anchor="middle" class="sans" font-size="9" font-weight="700" fill="#3fb950">99.6% less</text>
  <rect x="20" y="40" width="490" height="10" rx="3" fill="#21262d"/>
  <rect x="20" y="40" width="86" height="10" rx="3" fill="url(#bad)"/>
  <rect x="20" y="52" width="490" height="10" rx="3" fill="#21262d"/>
  <rect x="20" y="52" width="4" height="10" rx="3" fill="url(#good)"/>

  <!-- Row 2: Cross-service 30,000 → 50 -->
  <text x="20" y="88" class="sans label">Cross-service report (GitHub + Slack + Drive)</text>
  <text x="560" y="88" class="sans" font-size="11" fill="#ef4444">30,000</text>
  <text x="608" y="88" class="sans" font-size="11" fill="#3a4455">→</text>
  <text x="622" y="88" class="sans" font-size="11" fill="#3fb950">50</text>
  <rect x="680" y="76" width="68" height="16" rx="8" fill="rgba(63,185,80,0.12)" stroke="rgba(63,185,80,0.35)" stroke-width="1"/>
  <text x="714" y="88" text-anchor="middle" class="sans" font-size="9" font-weight="700" fill="#3fb950">99.8% less</text>
  <rect x="20" y="94" width="490" height="10" rx="3" fill="#21262d"/>
  <rect x="20" y="94" width="184" height="10" rx="3" fill="url(#bad)"/>
  <rect x="20" y="106" width="490" height="10" rx="3" fill="#21262d"/>
  <rect x="20" y="106" width="4" height="10" rx="3" fill="url(#good)"/>

  <!-- Row 3: Large dataset 80,000 → 50 -->
  <text x="20" y="142" class="sans label">Large dataset (Salesforce 5k rows)</text>
  <text x="560" y="142" class="sans" font-size="11" fill="#ef4444">80,000</text>
  <text x="608" y="142" class="sans" font-size="11" fill="#3a4455">→</text>
  <text x="622" y="142" class="sans" font-size="11" fill="#3fb950">50</text>
  <rect x="680" y="130" width="68" height="16" rx="8" fill="rgba(63,185,80,0.12)" stroke="rgba(63,185,80,0.35)" stroke-width="1"/>
  <text x="714" y="142" text-anchor="middle" class="sans" font-size="9" font-weight="700" fill="#3fb950">99.9% less</text>
  <rect x="20" y="148" width="490" height="10" rx="3" fill="#21262d"/>
  <rect x="20" y="148" width="490" height="10" rx="3" fill="url(#bad)"/>
  <rect x="20" y="160" width="490" height="10" rx="3" fill="#21262d"/>
  <rect x="20" y="160" width="4" height="10" rx="3" fill="url(#good)"/>

  <!-- Row 4: Schema overhead 40,000 → 0 -->
  <text x="20" y="196" class="sans label">Schema overhead alone (6 servers, startup)</text>
  <text x="560" y="196" class="sans" font-size="11" fill="#ef4444">40,000</text>
  <text x="608" y="196" class="sans" font-size="11" fill="#3a4455">→</text>
  <text x="622" y="196" class="sans" font-size="11" fill="#3fb950">0</text>
  <rect x="680" y="184" width="68" height="16" rx="8" fill="rgba(63,185,80,0.12)" stroke="rgba(63,185,80,0.35)" stroke-width="1"/>
  <text x="714" y="196" text-anchor="middle" class="sans" font-size="9" font-weight="700" fill="#3fb950">100% less</text>
  <rect x="20" y="202" width="490" height="10" rx="3" fill="#21262d"/>
  <rect x="20" y="202" width="245" height="10" rx="3" fill="url(#bad)"/>
  <rect x="20" y="214" width="490" height="10" rx="3" fill="#21262d"/>
</svg>